<svg xmlns="http://www.w3.org/2000/svg" version="1.1" xmlns:xlink="http://www.w3.org/1999/xlink" xmlns:svgjs="http://svgjs.com/svgjs" width="900px" height="900px"><svg width="900px" height="900px" viewBox="0 0 900 900" version="1.1" xml:space="preserve" id="SvgjsSvg1006" inkscape:version="1.3.2 (091e20ef0f, 2023-11-25, custom)" sodipodi:docname="favicon.svg" xmlns:inkscape="http://www.inkscape.org/namespaces/inkscape" xmlns:sodipodi="http://sodipodi.sourceforge.net/DTD/sodipodi-0.dtd" xmlns="http://www.w3.org/2000/svg" xmlns:svg="http://www.w3.org/2000/svg"><defs id="SvgjsDefs1005"></defs>
  <sodipodi:namedview pagecolor="#000000" bordercolor="#292929" borderopacity="1" inkscape:showpageshadow="2" inkscape:pageopacity="0.0" inkscape:pagecheckerboard="true" inkscape:deskcolor="#232323" id="SvgjsSodipodi:namedview1004" inkscape:zoom="0.73444444" inkscape:cx="449.31921" inkscape:cy="449.31921" inkscape:window-width="2516" inkscape:window-height="1348" inkscape:window-x="0" inkscape:window-y="0" inkscape:window-maximized="1" inkscape:current-layer="g2"></sodipodi:namedview>
 <style type="text/css" id="SvgjsStyle1003">
g.prefab path {
  vector-effect:non-scaling-stroke;
  -inkscape-stroke:hairline;
  fill: none;
  fill-opacity: 1;
  stroke-opacity: 1;
  stroke: #00349c;
}
 </style>
 <g inkscape:label="Cross" style="fill:#0000ff;stroke-width:2;stroke:black" class="prefab" id="SvgjsG1002">
  
  
 <path d="m 771.0644,374.6929 h -28.2463 c -23.043,0 -42.3694,-19.8839 -42.3694,-43.48442 0,-11.89318 5.0174,-22.67137 13.9373,-30.66209 l 18.2114,-17.83976 c 18.0256,-17.83976 18.0256,-47.01521 0,-64.85497 l -41.4403,-41.06861 c -8.1765,-8.17656 -20.2555,-13.00816 -32.5204,-13.00816 -12.2648,0 -24.158,4.8316 -32.5204,13.00816 l -17.4681,17.4681 c -8.3624,9.29154 -19.51221,14.30897 -31.59122,14.30897 -23.78635,0 -43.67025,-19.32641 -43.67025,-42.1836 V 137.9444 c 0,-25.08716 -20.25556,-46.643539 -45.52855,-46.643539 H 431.3656 c -25.273,0 -45.34273,21.370549 -45.34273,46.643539 v 28.24629 c 0,22.85719 -19.8839,42.1836 -43.67024,42.1836 -11.89318,0 -22.8572,-5.01743 -30.84792,-13.75148 l -18.0256,-17.83976 c -8.17655,-8.36239 -20.25556,-13.00816 -32.52039,-13.00816 -12.26484,0 -24.15801,4.8316 -32.5204,13.00816 l -41.81194,40.88278 c -17.83976,17.83976 -17.83976,47.01521 0,64.66914 l 17.4681,17.4681 c 9.29154,8.36238 14.4948,19.51223 14.4948,31.40541 0,23.78635 -19.3264,43.48442 -42.36943,43.48442 h -28.24629 c -25.45882,0 -46.82937,19.8839 -46.82937,45.15689 v 28.24629 28.24629 c 0,25.08716 21.37055,45.15689 46.82937,45.15689 h 28.24629 c 23.04303,0 42.36943,19.8839 42.36943,43.48442 0,11.89317 -5.20326,23.04302 -14.4948,31.40541 l -17.4681,17.28227 c -17.83976,17.83976 -17.83976,47.0152 0,64.66913 l 41.44028,41.25445 c 8.17655,8.36239 20.25556,13.00816 32.52039,13.00816 12.26484,0 24.15801,-4.8316 32.5204,-13.00816 l 18.02559,-17.83976 c 7.8049,-8.73405 18.95475,-13.75148 30.84792,-13.75148 23.78635,0 43.67025,19.32641 43.67025,42.1836 v 28.24629 c 0,25.08716 20.06973,46.64354 45.52856,46.64354 h 56.49258 c 25.27299,0 45.34272,-21.37055 45.34272,-46.64354 V 730.1873 c 0,-22.85719 19.8839,-42.1836 43.67025,-42.1836 11.89317,0 23.04298,5.20326 31.59128,14.30897 l 17.4681,17.4681 c 8.3623,8.17656 20.2555,13.00816 32.5204,13.00816 12.2648,0 24.158,-4.8316 32.5204,-13.00816 l 41.4402,-41.25444 c 17.8398,-17.83977 17.8398,-47.01521 0,-64.85497 L 714.0143,595.8316 c -8.9199,-7.99073 -13.9373,-18.95475 -13.9373,-30.66209 0,-23.78635 19.3264,-43.48442 42.3694,-43.48442 h 28.2463 c 25.273,0 43.2986,-19.8839 43.2986,-45.15689 V 448.09608 419.84979 C 814.363,394.5768 796.3374,374.6929 771.0644,374.6929 Z m -162.9737,73.40318 v 0 c 0,81.9514 -66.34158,148.66467 -148.66464,148.66467 -82.32307,0 -148.66468,-66.71327 -148.66468,-148.66467 v 0 0 c 0,-81.9514 66.34161,-148.66468 148.66468,-148.66468 82.32306,0 148.66464,66.71328 148.66464,148.66468 z" id="SvgjsPath1001" style="fill:#000000;fill-opacity:1;stroke:none;stroke-width:3.71662;stroke-opacity:1"></path><path d="m 766.27228,363.19399 h -28.24629 c -23.04302,0 -42.36943,-19.8839 -42.36943,-43.48442 0,-11.89318 5.01743,-22.67137 13.93732,-30.66209 l 18.21142,-17.83976 c 18.02559,-17.83976 18.02559,-47.01521 0,-64.85497 l -41.44028,-41.06861 c -8.17656,-8.17656 -20.25556,-13.00816 -32.5204,-13.00816 -12.26483,0 -24.15801,4.8316 -32.5204,13.00816 l -17.4681,17.4681 c -8.36238,9.29154 -19.51223,14.30897 -31.59124,14.30897 -23.78635,0 -43.67025,-19.32641 -43.67025,-42.1836 v -28.43212 c 0,-25.08716 -20.25556,-46.643541 -45.52855,-46.643541 H 426.5735 c -25.273,0 -45.34273,21.370551 -45.34273,46.643541 v 28.24629 c 0,22.85719 -19.8839,42.1836 -43.67024,42.1836 -11.89318,0 -22.8572,-5.01743 -30.84792,-13.75148 l -18.0256,-17.83976 c -8.17655,-8.36239 -20.25556,-13.00816 -32.52039,-13.00816 -12.26484,0 -24.15801,4.8316 -32.5204,13.00816 l -41.81194,40.88278 c -17.83976,17.83976 -17.83976,47.01521 0,64.66914 l 17.4681,17.4681 c 9.29154,8.36238 14.4948,19.51223 14.4948,31.40541 0,23.78635 -19.3264,43.48442 -42.36943,43.48442 h -28.24629 c -25.45882,0 -46.829371,19.8839 -46.829371,45.15689 v 28.24629 28.24629 c 0,25.08716 21.370551,45.15689 46.829371,45.15689 h 28.24629 c 23.04303,0 42.36943,19.8839 42.36943,43.48442 0,11.89317 -5.20326,23.04302 -14.4948,31.40541 l -17.4681,17.28227 c -17.83976,17.83976 -17.83976,47.0152 0,64.66913 l 41.44028,41.25445 c 8.17655,8.36239 20.25556,13.00816 32.52039,13.00816 12.26484,0 24.15801,-4.8316 32.5204,-13.00816 l 18.02559,-17.83976 c 7.8049,-8.73405 18.95475,-13.75148 30.84792,-13.75148 23.78635,0 43.67025,19.32641 43.67025,42.1836 v 28.24629 c 0,25.08716 20.06973,46.64354 45.52856,46.64354 h 56.49258 c 25.27299,0 45.34272,-21.37055 45.34272,-46.64354 v -28.24629 c 0,-22.85719 19.8839,-42.1836 43.67025,-42.1836 11.89317,0 23.04302,5.20326 31.59124,14.30897 l 17.4681,17.4681 c 8.36239,8.17656 20.25556,13.00816 32.5204,13.00816 12.26484,0 24.15801,-4.8316 32.5204,-13.00816 l 41.44028,-41.25444 c 17.83976,-17.83977 17.83976,-47.01521 0,-64.85497 l -18.21143,-17.83976 c -8.91988,-7.99073 -13.93731,-18.95475 -13.93731,-30.66209 0,-23.78635 19.32641,-43.48442 42.36943,-43.48442 h 28.24629 c 25.273,0 43.29859,-19.8839 43.29859,-45.15689 v -28.43212 -28.24629 c 0.37166,-25.27299 -17.65393,-45.15689 -42.92693,-45.15689 z m -162.97365,73.40318 v 0 c 0,81.9514 -66.34161,148.66467 -148.66467,148.66467 -82.32307,0 -148.66468,-66.71327 -148.66468,-148.66467 v 0 0 c 0,-81.9514 66.34161,-148.66468 148.66468,-148.66468 82.32306,0 148.66467,66.71328 148.66467,148.66468 z" id="SvgjsPath1000" style="stroke-width:3.71662;fill:#5f5f5f;stroke:none;stroke-opacity:1;fill-opacity:1"></path></g>
</svg><style>@media (prefers-color-scheme: light) { :root { filter: none; } }
@media (prefers-color-scheme: dark) { :root { filter: contrast(0.8333333333333334) brightness(1.7); } }
</style></svg>